<svg id="visual" viewBox="0 0 900 600" width="900" height="600" xmlns="http://www.w3.org/2000/svg" xmlns:xlink="http://www.w3.org/1999/xlink" version="1.1"><g stroke-width="1" stroke-linejoin="bevel"><path d="M444.5 279L479.5 311L458.5 264Z" fill="#297ea6" stroke="#297ea6"></path><path d="M479.5 311L510.4 271L458.5 264Z" fill="#081a28" stroke="#081a28"></path><path d="M479.5 311L522.4 295L510.4 271Z" fill="#112e42" stroke="#112e42"></path><path d="M444.5 279L442.5 343L479.5 311Z" fill="#1d4e6b" stroke="#1d4e6b"></path><path d="M479.5 311L495.5 348L522.4 295Z" fill="#00101c" stroke="#00101c"></path><path d="M442.5 343L495.5 348L479.5 311Z" fill="#0c2435" stroke="#0c2435"></path><path d="M458.5 264L407.5 261L444.5 279Z" fill="#15384f" stroke="#15384f"></path><path d="M444.5 279L367.6 315L442.5 343Z" fill="#246688" stroke="#246688"></path><path d="M495.5 348L531.4 343L522.4 295Z" fill="#1d4e6b" stroke="#1d4e6b"></path><path d="M510.4 271L467.5 197L458.5 264Z" fill="#081a28" stroke="#081a28"></path><path d="M458.5 264L425.5 205L407.5 261Z" fill="#00101c" stroke="#00101c"></path><path d="M467.5 197L425.5 205L458.5 264Z" fill="#081a28" stroke="#081a28"></path><path d="M531.4 343L565.4 309L522.4 295Z" fill="#297ea6" stroke="#297ea6"></path><path d="M522.4 295L567.4 253L510.4 271Z" fill="#297ea6" stroke="#297ea6"></path><path d="M510.4 271L526.4 207L467.5 197Z" fill="#297ea6" stroke="#297ea6"></path><path d="M567.4 253L526.4 207L510.4 271Z" fill="#297ea6" stroke="#297ea6"></path><path d="M565.4 309L567.4 253L522.4 295Z" fill="#246688" stroke="#246688"></path><path d="M358.6 235L367.6 315L407.5 261Z" fill="#277297" stroke="#277297"></path><path d="M407.5 261L367.6 315L444.5 279Z" fill="#246688" stroke="#246688"></path><path d="M376.6 194L358.6 235L407.5 261Z" fill="#19435d" stroke="#19435d"></path><path d="M567.4 253L561.4 207L526.4 207Z" fill="#277297" stroke="#277297"></path><path d="M464.5 154L443.5 167L467.5 197Z" fill="#112e42" stroke="#112e42"></path><path d="M376.6 389L412.5 397L442.5 343Z" fill="#246688" stroke="#246688"></path><path d="M442.5 343L474.5 412L495.5 348Z" fill="#246688" stroke="#246688"></path><path d="M495.5 348L528.4 396L531.4 343Z" fill="#205a7a" stroke="#205a7a"></path><path d="M464.5 154L467.5 197L528.4 143Z" fill="#00101c" stroke="#00101c"></path><path d="M467.5 197L443.5 167L425.5 205Z" fill="#205a7a" stroke="#205a7a"></path><path d="M425.5 205L376.6 194L407.5 261Z" fill="#277297" stroke="#277297"></path><path d="M474.5 412L528.4 396L495.5 348Z" fill="#19435d" stroke="#19435d"></path><path d="M531.4 343L578.4 364L565.4 309Z" fill="#00101c" stroke="#00101c"></path><path d="M412.5 397L474.5 412L442.5 343Z" fill="#081a28" stroke="#081a28"></path><path d="M305.6 296L350.6 336L367.6 315Z" fill="#081a28" stroke="#081a28"></path><path d="M367.6 315L376.6 389L442.5 343Z" fill="#112e42" stroke="#112e42"></path><path d="M443.5 167L376.6 194L425.5 205Z" fill="#0c2435" stroke="#0c2435"></path><path d="M528.4 396L578.4 364L531.4 343Z" fill="#0c2435" stroke="#0c2435"></path><path d="M565.4 309L626.3 301L567.4 253Z" fill="#19435d" stroke="#19435d"></path><path d="M528.4 143L467.5 197L526.4 207Z" fill="#0c2435" stroke="#0c2435"></path><path d="M443.5 167L369.6 164L376.6 194Z" fill="#19435d" stroke="#19435d"></path><path d="M350.6 336L376.6 389L367.6 315Z" fill="#246688" stroke="#246688"></path><path d="M412.5 397L435.5 441L474.5 412Z" fill="#205a7a" stroke="#205a7a"></path><path d="M335.6 197L322.6 235L358.6 235Z" fill="#15384f" stroke="#15384f"></path><path d="M358.6 235L305.6 296L367.6 315Z" fill="#15384f" stroke="#15384f"></path><path d="M561.4 207L528.4 143L526.4 207Z" fill="#081a28" stroke="#081a28"></path><path d="M349.6 439L435.5 441L412.5 397Z" fill="#0c2435" stroke="#0c2435"></path><path d="M474.5 412L523.4 451L528.4 396Z" fill="#246688" stroke="#246688"></path><path d="M578.4 364L626.3 301L565.4 309Z" fill="#00101c" stroke="#00101c"></path><path d="M567.4 253L623.3 240L561.4 207Z" fill="#297ea6" stroke="#297ea6"></path><path d="M561.4 207L576.4 153L528.4 143Z" fill="#246688" stroke="#246688"></path><path d="M409.5 109L369.6 164L443.5 167Z" fill="#1d4e6b" stroke="#1d4e6b"></path><path d="M376.6 194L335.6 197L358.6 235Z" fill="#1d4e6b" stroke="#1d4e6b"></path><path d="M409.5 109L443.5 167L464.5 154Z" fill="#081a28" stroke="#081a28"></path><path d="M369.6 164L335.6 197L376.6 194Z" fill="#297ea6" stroke="#297ea6"></path><path d="M626.3 301L623.3 240L567.4 253Z" fill="#0c2435" stroke="#0c2435"></path><path d="M322.6 235L305.6 296L358.6 235Z" fill="#15384f" stroke="#15384f"></path><path d="M350.6 336L310.6 392L376.6 389Z" fill="#246688" stroke="#246688"></path><path d="M651.3 196L576.4 153L561.4 207Z" fill="#00101c" stroke="#00101c"></path><path d="M491.5 464L523.4 451L474.5 412Z" fill="#081a28" stroke="#081a28"></path><path d="M528.4 396L601.4 404L578.4 364Z" fill="#112e42" stroke="#112e42"></path><path d="M578.4 364L623.3 371L626.3 301Z" fill="#15384f" stroke="#15384f"></path><path d="M601.4 404L623.3 371L578.4 364Z" fill="#1d4e6b" stroke="#1d4e6b"></path><path d="M305.6 296L298.6 332L350.6 336Z" fill="#205a7a" stroke="#205a7a"></path><path d="M376.6 389L349.6 439L412.5 397Z" fill="#246688" stroke="#246688"></path><path d="M567.4 462L601.4 404L528.4 396Z" fill="#277297" stroke="#277297"></path><path d="M435.5 441L491.5 464L474.5 412Z" fill="#081a28" stroke="#081a28"></path><path d="M576.4 153L531.4 113L528.4 143Z" fill="#246688" stroke="#246688"></path><path d="M528.4 143L489.5 101L464.5 154Z" fill="#297ea6" stroke="#297ea6"></path><path d="M531.4 113L489.5 101L528.4 143Z" fill="#246688" stroke="#246688"></path><path d="M489.5 101L409.5 109L464.5 154Z" fill="#205a7a" stroke="#205a7a"></path><path d="M369.6 164L330.6 153L335.6 197Z" fill="#081a28" stroke="#081a28"></path><path d="M298.6 332L310.6 392L350.6 336Z" fill="#081a28" stroke="#081a28"></path><path d="M435.5 441L465.5 516L491.5 464Z" fill="#19435d" stroke="#19435d"></path><path d="M310.6 392L349.6 439L376.6 389Z" fill="#297ea6" stroke="#297ea6"></path><path d="M335.6 197L282.7 232L322.6 235Z" fill="#081a28" stroke="#081a28"></path><path d="M322.6 235L282.7 232L305.6 296Z" fill="#19435d" stroke="#19435d"></path><path d="M248.7 303L256.7 344L298.6 332Z" fill="#297ea6" stroke="#297ea6"></path><path d="M363.6 109L330.6 153L369.6 164Z" fill="#19435d" stroke="#19435d"></path><path d="M278.7 169L282.7 232L335.6 197Z" fill="#205a7a" stroke="#205a7a"></path><path d="M349.6 439L407.5 478L435.5 441Z" fill="#277297" stroke="#277297"></path><path d="M529.4 480L567.4 462L523.4 451Z" fill="#205a7a" stroke="#205a7a"></path><path d="M523.4 451L567.4 462L528.4 396Z" fill="#277297" stroke="#277297"></path><path d="M601.4 404L642.3 416L623.3 371Z" fill="#1d4e6b" stroke="#1d4e6b"></path><path d="M529.4 480L523.4 451L491.5 464Z" fill="#277297" stroke="#277297"></path><path d="M465.5 516L529.4 480L491.5 464Z" fill="#246688" stroke="#246688"></path><path d="M669.2 218L651.3 196L623.3 240Z" fill="#1d4e6b" stroke="#1d4e6b"></path><path d="M623.3 240L651.3 196L561.4 207Z" fill="#1d4e6b" stroke="#1d4e6b"></path><path d="M576.4 153L571.4 91L531.4 113Z" fill="#297ea6" stroke="#297ea6"></path><path d="M669.2 218L623.3 240L681.2 249Z" fill="#1d4e6b" stroke="#1d4e6b"></path><path d="M335.6 106L363.6 109L330.6 52Z" fill="#00101c" stroke="#00101c"></path><path d="M409.5 109L363.6 109L369.6 164Z" fill="#112e42" stroke="#112e42"></path><path d="M310.6 392L330.6 448L349.6 439Z" fill="#277297" stroke="#277297"></path><path d="M349.6 439L383.6 493L407.5 478Z" fill="#205a7a" stroke="#205a7a"></path><path d="M681.2 249L623.3 240L626.3 301Z" fill="#19435d" stroke="#19435d"></path><path d="M686.2 341L626.3 301L623.3 371Z" fill="#15384f" stroke="#15384f"></path><path d="M686.2 341L682.2 292L626.3 301Z" fill="#112e42" stroke="#112e42"></path><path d="M702.2 150L638.3 157L651.3 196Z" fill="#205a7a" stroke="#205a7a"></path><path d="M651.3 196L638.3 157L576.4 153Z" fill="#205a7a" stroke="#205a7a"></path><path d="M567.4 462L642.3 416L601.4 404Z" fill="#0c2435" stroke="#0c2435"></path><path d="M682.2 292L681.2 249L626.3 301Z" fill="#112e42" stroke="#112e42"></path><path d="M248.7 303L298.6 332L305.6 296Z" fill="#0c2435" stroke="#0c2435"></path><path d="M298.6 332L256.7 344L310.6 392Z" fill="#19435d" stroke="#19435d"></path><path d="M310.6 392L285.7 411L330.6 448Z" fill="#297ea6" stroke="#297ea6"></path><path d="M282.7 232L248.7 303L305.6 296Z" fill="#1d4e6b" stroke="#1d4e6b"></path><path d="M256.7 344L285.7 411L310.6 392Z" fill="#081a28" stroke="#081a28"></path><path d="M642.3 94L571.4 91L576.4 153Z" fill="#297ea6" stroke="#297ea6"></path><path d="M531.4 113L512.4 66L489.5 101Z" fill="#0c2435" stroke="#0c2435"></path><path d="M424.5 56L363.6 109L409.5 109Z" fill="#19435d" stroke="#19435d"></path><path d="M322.6 493L383.6 493L330.6 448Z" fill="#00101c" stroke="#00101c"></path><path d="M330.6 448L383.6 493L349.6 439Z" fill="#277297" stroke="#277297"></path><path d="M407.5 478L465.5 516L435.5 441Z" fill="#205a7a" stroke="#205a7a"></path><path d="M692.2 391L686.2 341L623.3 371Z" fill="#1d4e6b" stroke="#1d4e6b"></path><path d="M682.2 292L730.2 296L681.2 249Z" fill="#297ea6" stroke="#297ea6"></path><path d="M335.6 106L278.7 169L330.6 153Z" fill="#081a28" stroke="#081a28"></path><path d="M330.6 153L278.7 169L335.6 197Z" fill="#205a7a" stroke="#205a7a"></path><path d="M282.7 232L216.8 239L248.7 303Z" fill="#205a7a" stroke="#205a7a"></path><path d="M424.5 56L409.5 109L489.5 101Z" fill="#246688" stroke="#246688"></path><path d="M363.6 109L335.6 106L330.6 153Z" fill="#081a28" stroke="#081a28"></path><path d="M571.4 91L512.4 66L531.4 113Z" fill="#081a28" stroke="#081a28"></path><path d="M278.7 169L260.7 194L282.7 232Z" fill="#205a7a" stroke="#205a7a"></path><path d="M422.5 563L465.5 516L407.5 478Z" fill="#277297" stroke="#277297"></path><path d="M529.4 480L564.4 520L567.4 462Z" fill="#297ea6" stroke="#297ea6"></path><path d="M478.5 33L424.5 56L489.5 101Z" fill="#112e42" stroke="#112e42"></path><path d="M208.8 400L279.7 429L285.7 411Z" fill="#205a7a" stroke="#205a7a"></path><path d="M285.7 411L279.7 429L330.6 448Z" fill="#277297" stroke="#277297"></path><path d="M206.8 138L260.7 194L278.7 169Z" fill="#1d4e6b" stroke="#1d4e6b"></path><path d="M174.8 228L232.8 219L159.8 184Z" fill="#112e42" stroke="#112e42"></path><path d="M260.7 194L232.8 219L282.7 232Z" fill="#277297" stroke="#277297"></path><path d="M656.3 462L692.2 391L642.3 416Z" fill="#112e42" stroke="#112e42"></path><path d="M642.3 416L692.2 391L623.3 371Z" fill="#1d4e6b" stroke="#1d4e6b"></path><path d="M686.2 341L730.2 296L682.2 292Z" fill="#15384f" stroke="#15384f"></path><path d="M248.7 303L231.8 355L256.7 344Z" fill="#0c2435" stroke="#0c2435"></path><path d="M256.7 344L231.8 355L285.7 411Z" fill="#081a28" stroke="#081a28"></path><path d="M201.8 304L231.8 355L248.7 303Z" fill="#297ea6" stroke="#297ea6"></path><path d="M549.4 529L564.4 520L529.4 480Z" fill="#0c2435" stroke="#0c2435"></path><path d="M567.4 462L656.3 462L642.3 416Z" fill="#205a7a" stroke="#205a7a"></path><path d="M268.7 482L322.6 493L330.6 448Z" fill="#112e42" stroke="#112e42"></path><path d="M422.5 563L474.5 549L465.5 516Z" fill="#246688" stroke="#246688"></path><path d="M465.5 516L549.4 529L529.4 480Z" fill="#081a28" stroke="#081a28"></path><path d="M474.5 0L478.5 33L524.4 0Z" fill="#112e42" stroke="#112e42"></path><path d="M512.4 66L478.5 33L489.5 101Z" fill="#1d4e6b" stroke="#1d4e6b"></path><path d="M615.3 499L656.3 462L567.4 462Z" fill="#15384f" stroke="#15384f"></path><path d="M617.3 66L590.4 62L571.4 91Z" fill="#19435d" stroke="#19435d"></path><path d="M571.4 91L590.4 62L512.4 66Z" fill="#112e42" stroke="#112e42"></path><path d="M642.3 94L576.4 153L638.3 157Z" fill="#277297" stroke="#277297"></path><path d="M232.8 219L216.8 239L282.7 232Z" fill="#15384f" stroke="#15384f"></path><path d="M600.4 560L615.3 499L564.4 520Z" fill="#112e42" stroke="#112e42"></path><path d="M564.4 520L615.3 499L567.4 462Z" fill="#205a7a" stroke="#205a7a"></path><path d="M686.2 95L642.3 94L638.3 157Z" fill="#19435d" stroke="#19435d"></path><path d="M702.2 150L651.3 196L669.2 218Z" fill="#19435d" stroke="#19435d"></path><path d="M422.5 563L407.5 478L383.6 493Z" fill="#112e42" stroke="#112e42"></path><path d="M465.5 516L474.5 549L549.4 529Z" fill="#297ea6" stroke="#297ea6"></path><path d="M725.2 367L730.2 296L686.2 341Z" fill="#112e42" stroke="#112e42"></path><path d="M752.2 209L702.2 150L669.2 218Z" fill="#297ea6" stroke="#297ea6"></path><path d="M642.3 94L617.3 66L571.4 91Z" fill="#081a28" stroke="#081a28"></path><path d="M524.4 0L478.5 33L512.4 66Z" fill="#081a28" stroke="#081a28"></path><path d="M216.8 239L201.8 304L248.7 303Z" fill="#205a7a" stroke="#205a7a"></path><path d="M692.2 391L725.2 367L686.2 341Z" fill="#19435d" stroke="#19435d"></path><path d="M741.2 397L725.2 367L692.2 391Z" fill="#205a7a" stroke="#205a7a"></path><path d="M735.2 234L669.2 218L681.2 249Z" fill="#081a28" stroke="#081a28"></path><path d="M642.3 94L697.2 37L617.3 66Z" fill="#19435d" stroke="#19435d"></path><path d="M752.2 209L735.2 234L780.1 234Z" fill="#277297" stroke="#277297"></path><path d="M730.2 296L735.2 234L681.2 249Z" fill="#277297" stroke="#277297"></path><path d="M424.5 56L365.6 36L363.6 109Z" fill="#19435d" stroke="#19435d"></path><path d="M335.6 106L251.7 84L278.7 169Z" fill="#277297" stroke="#277297"></path><path d="M232.8 219L174.8 228L216.8 239Z" fill="#112e42" stroke="#112e42"></path><path d="M401.5 0L365.6 36L424.5 56Z" fill="#277297" stroke="#277297"></path><path d="M365.6 36L330.6 52L363.6 109Z" fill="#19435d" stroke="#19435d"></path><path d="M197.8 455L268.7 482L279.7 429Z" fill="#205a7a" stroke="#205a7a"></path><path d="M279.7 429L268.7 482L330.6 448Z" fill="#205a7a" stroke="#205a7a"></path><path d="M365.6 549L422.5 563L383.6 493Z" fill="#112e42" stroke="#112e42"></path><path d="M208.8 400L285.7 411L231.8 355Z" fill="#00101c" stroke="#00101c"></path><path d="M365.6 549L383.6 493L322.6 493Z" fill="#081a28" stroke="#081a28"></path><path d="M526.4 600L600.4 560L549.4 529Z" fill="#0c2435" stroke="#0c2435"></path><path d="M299.6 557L365.6 549L322.6 493Z" fill="#246688" stroke="#246688"></path><path d="M168.8 382L208.8 400L231.8 355Z" fill="#112e42" stroke="#112e42"></path><path d="M524.4 0L512.4 66L590.4 62Z" fill="#00101c" stroke="#00101c"></path><path d="M478.5 33L474.5 0L424.5 56Z" fill="#112e42" stroke="#112e42"></path><path d="M738.2 80L686.2 95L702.2 150Z" fill="#297ea6" stroke="#297ea6"></path><path d="M702.2 150L686.2 95L638.3 157Z" fill="#1d4e6b" stroke="#1d4e6b"></path><path d="M582.4 0L524.4 0L590.4 62Z" fill="#297ea6" stroke="#297ea6"></path><path d="M582.4 0L590.4 62L632.3 0Z" fill="#205a7a" stroke="#205a7a"></path><path d="M701.2 470L692.2 391L656.3 462Z" fill="#112e42" stroke="#112e42"></path><path d="M701.2 470L741.2 397L692.2 391Z" fill="#205a7a" stroke="#205a7a"></path><path d="M725.2 367L780.1 351L730.2 296Z" fill="#19435d" stroke="#19435d"></path><path d="M780.1 234L735.2 234L730.2 296Z" fill="#0c2435" stroke="#0c2435"></path><path d="M735.2 234L752.2 209L669.2 218Z" fill="#205a7a" stroke="#205a7a"></path><path d="M474.5 0L401.5 0L424.5 56Z" fill="#205a7a" stroke="#205a7a"></path><path d="M365.6 36L338.6 0L330.6 52Z" fill="#205a7a" stroke="#205a7a"></path><path d="M676.2 512L701.2 470L656.3 462Z" fill="#15384f" stroke="#15384f"></path><path d="M676.2 512L656.3 462L615.3 499Z" fill="#15384f" stroke="#15384f"></path><path d="M261.7 59L335.6 106L330.6 52Z" fill="#112e42" stroke="#112e42"></path><path d="M261.7 59L251.7 84L335.6 106Z" fill="#19435d" stroke="#19435d"></path><path d="M216.8 239L168.8 278L201.8 304Z" fill="#00101c" stroke="#00101c"></path><path d="M206.8 138L232.8 219L260.7 194Z" fill="#00101c" stroke="#00101c"></path><path d="M201.8 304L168.8 382L231.8 355Z" fill="#1d4e6b" stroke="#1d4e6b"></path><path d="M174.8 228L168.8 278L216.8 239Z" fill="#1d4e6b" stroke="#1d4e6b"></path><path d="M401.5 0L380.6 0L365.6 36Z" fill="#081a28" stroke="#081a28"></path><path d="M251.7 84L206.8 138L278.7 169Z" fill="#15384f" stroke="#15384f"></path><path d="M526.4 600L549.4 529L474.5 549Z" fill="#205a7a" stroke="#205a7a"></path><path d="M549.4 529L600.4 560L564.4 520Z" fill="#246688" stroke="#246688"></path><path d="M647.3 555L676.2 512L615.3 499Z" fill="#297ea6" stroke="#297ea6"></path><path d="M252.7 0L261.7 59L330.6 52Z" fill="#15384f" stroke="#15384f"></path><path d="M251.7 84L202.8 83L206.8 138Z" fill="#19435d" stroke="#19435d"></path><path d="M632.3 0L590.4 62L617.3 66Z" fill="#0c2435" stroke="#0c2435"></path><path d="M425.5 600L472.5 600L422.5 563Z" fill="#205a7a" stroke="#205a7a"></path><path d="M422.5 563L472.5 600L474.5 549Z" fill="#00101c" stroke="#00101c"></path><path d="M139.8 368L168.8 382L201.8 304Z" fill="#277297" stroke="#277297"></path><path d="M208.8 400L197.8 455L279.7 429Z" fill="#081a28" stroke="#081a28"></path><path d="M387.6 600L422.5 563L365.6 549Z" fill="#297ea6" stroke="#297ea6"></path><path d="M387.6 600L425.5 600L422.5 563Z" fill="#297ea6" stroke="#297ea6"></path><path d="M380.6 0L338.6 0L365.6 36Z" fill="#1d4e6b" stroke="#1d4e6b"></path><path d="M811.1 307L780.1 234L730.2 296Z" fill="#297ea6" stroke="#297ea6"></path><path d="M752.2 209L751.2 143L702.2 150Z" fill="#277297" stroke="#277297"></path><path d="M783.1 150L751.2 143L752.2 209Z" fill="#277297" stroke="#277297"></path><path d="M668.2 0L632.3 0L617.3 66Z" fill="#081a28" stroke="#081a28"></path><path d="M472.5 600L526.4 600L474.5 549Z" fill="#19435d" stroke="#19435d"></path><path d="M813.1 401L780.1 351L741.2 397Z" fill="#112e42" stroke="#112e42"></path><path d="M741.2 397L780.1 351L725.2 367Z" fill="#205a7a" stroke="#205a7a"></path><path d="M754.2 467L741.2 397L701.2 470Z" fill="#297ea6" stroke="#297ea6"></path><path d="M259.7 531L322.6 493L268.7 482Z" fill="#297ea6" stroke="#297ea6"></path><path d="M259.7 531L299.6 557L322.6 493Z" fill="#19435d" stroke="#19435d"></path><path d="M168.8 382L197.8 455L208.8 400Z" fill="#19435d" stroke="#19435d"></path><path d="M221.8 512L259.7 531L268.7 482Z" fill="#246688" stroke="#246688"></path><path d="M600.4 560L647.3 555L615.3 499Z" fill="#205a7a" stroke="#205a7a"></path><path d="M626.3 600L647.3 555L600.4 560Z" fill="#112e42" stroke="#112e42"></path><path d="M322.6 600L387.6 600L365.6 549Z" fill="#112e42" stroke="#112e42"></path><path d="M136.8 135L159.8 184L206.8 138Z" fill="#246688" stroke="#246688"></path><path d="M206.8 138L159.8 184L232.8 219Z" fill="#112e42" stroke="#112e42"></path><path d="M90.9 251L120.9 306L168.8 278Z" fill="#297ea6" stroke="#297ea6"></path><path d="M120.9 306L139.8 368L201.8 304Z" fill="#277297" stroke="#277297"></path><path d="M697.2 37L642.3 94L686.2 95Z" fill="#277297" stroke="#277297"></path><path d="M197.8 455L221.8 512L268.7 482Z" fill="#205a7a" stroke="#205a7a"></path><path d="M257.7 600L322.6 600L299.6 557Z" fill="#297ea6" stroke="#297ea6"></path><path d="M261.7 59L202.8 83L251.7 84Z" fill="#19435d" stroke="#19435d"></path><path d="M169.8 89L202.8 83L153.8 60Z" fill="#15384f" stroke="#15384f"></path><path d="M526.4 600L591.4 600L600.4 560Z" fill="#15384f" stroke="#15384f"></path><path d="M731.2 519L701.2 470L676.2 512Z" fill="#19435d" stroke="#19435d"></path><path d="M731.2 519L754.2 467L701.2 470Z" fill="#277297" stroke="#277297"></path><path d="M120.9 306L201.8 304L168.8 278Z" fill="#277297" stroke="#277297"></path><path d="M168.8 382L155.8 469L197.8 455Z" fill="#00101c" stroke="#00101c"></path><path d="M197.8 455L164.8 494L221.8 512Z" fill="#081a28" stroke="#081a28"></path><path d="M738.2 80L697.2 37L686.2 95Z" fill="#15384f" stroke="#15384f"></path><path d="M805.1 78L738.2 80L751.2 143Z" fill="#277297" stroke="#277297"></path><path d="M751.2 143L738.2 80L702.2 150Z" fill="#1d4e6b" stroke="#1d4e6b"></path><path d="M825.1 371L811.1 307L780.1 351Z" fill="#246688" stroke="#246688"></path><path d="M780.1 351L811.1 307L730.2 296Z" fill="#1d4e6b" stroke="#1d4e6b"></path><path d="M809.1 185L783.1 150L752.2 209Z" fill="#0c2435" stroke="#0c2435"></path><path d="M809.1 185L752.2 209L780.1 234Z" fill="#112e42" stroke="#112e42"></path><path d="M257.7 600L299.6 557L259.7 531Z" fill="#19435d" stroke="#19435d"></path><path d="M299.6 557L322.6 600L365.6 549Z" fill="#277297" stroke="#277297"></path><path d="M90.9 251L168.8 278L174.8 228Z" fill="#1d4e6b" stroke="#1d4e6b"></path><path d="M698.2 563L731.2 519L676.2 512Z" fill="#246688" stroke="#246688"></path><path d="M698.2 563L676.2 512L647.3 555Z" fill="#297ea6" stroke="#297ea6"></path><path d="M591.4 600L626.3 600L600.4 560Z" fill="#0c2435" stroke="#0c2435"></path><path d="M736.2 0L668.2 0L697.2 37Z" fill="#297ea6" stroke="#297ea6"></path><path d="M697.2 37L668.2 0L617.3 66Z" fill="#15384f" stroke="#15384f"></path><path d="M804.1 508L790.1 432L754.2 467Z" fill="#081a28" stroke="#081a28"></path><path d="M754.2 467L790.1 432L741.2 397Z" fill="#297ea6" stroke="#297ea6"></path><path d="M843.1 221L809.1 185L780.1 234Z" fill="#297ea6" stroke="#297ea6"></path><path d="M789.1 42L752.2 37L738.2 80Z" fill="#297ea6" stroke="#297ea6"></path><path d="M670.2 600L698.2 563L647.3 555Z" fill="#081a28" stroke="#081a28"></path><path d="M202.8 83L169.8 89L206.8 138Z" fill="#0c2435" stroke="#0c2435"></path><path d="M86.9 205L90.9 251L174.8 228Z" fill="#081a28" stroke="#081a28"></path><path d="M196.8 36L202.8 83L261.7 59Z" fill="#081a28" stroke="#081a28"></path><path d="M338.6 0L252.7 0L330.6 52Z" fill="#277297" stroke="#277297"></path><path d="M108.9 397L155.8 469L168.8 382Z" fill="#00101c" stroke="#00101c"></path><path d="M221.8 512L205.8 552L259.7 531Z" fill="#0c2435" stroke="#0c2435"></path><path d="M108.9 397L168.8 382L139.8 368Z" fill="#1d4e6b" stroke="#1d4e6b"></path><path d="M790.1 432L813.1 401L741.2 397Z" fill="#081a28" stroke="#081a28"></path><path d="M811.1 307L838.1 282L780.1 234Z" fill="#0c2435" stroke="#0c2435"></path><path d="M849.1 403L813.1 401L841.1 448Z" fill="#081a28" stroke="#081a28"></path><path d="M169.8 89L136.8 135L206.8 138Z" fill="#205a7a" stroke="#205a7a"></path><path d="M813.1 401L825.1 371L780.1 351Z" fill="#00101c" stroke="#00101c"></path><path d="M155.8 469L164.8 494L197.8 455Z" fill="#0c2435" stroke="#0c2435"></path><path d="M900 319L838.1 282L811.1 307Z" fill="#277297" stroke="#277297"></path><path d="M252.7 0L196.8 36L261.7 59Z" fill="#297ea6" stroke="#297ea6"></path><path d="M169.8 89L126.9 84L136.8 135Z" fill="#081a28" stroke="#081a28"></path><path d="M626.3 600L670.2 600L647.3 555Z" fill="#081a28" stroke="#081a28"></path><path d="M51.9 143L116.9 166L136.8 135Z" fill="#19435d" stroke="#19435d"></path><path d="M136.8 135L116.9 166L159.8 184Z" fill="#246688" stroke="#246688"></path><path d="M153.8 529L205.8 552L221.8 512Z" fill="#0c2435" stroke="#0c2435"></path><path d="M94.9 346L139.8 368L120.9 306Z" fill="#1d4e6b" stroke="#1d4e6b"></path><path d="M94.9 346L108.9 397L139.8 368Z" fill="#246688" stroke="#246688"></path><path d="M111.9 487L153.8 529L164.8 494Z" fill="#00101c" stroke="#00101c"></path><path d="M205.8 552L257.7 600L259.7 531Z" fill="#081a28" stroke="#081a28"></path><path d="M805.1 78L751.2 143L783.1 150Z" fill="#00101c" stroke="#00101c"></path><path d="M738.2 80L752.2 37L697.2 37Z" fill="#277297" stroke="#277297"></path><path d="M38.9 321L94.9 346L120.9 306Z" fill="#15384f" stroke="#15384f"></path><path d="M86.9 205L174.8 228L159.8 184Z" fill="#112e42" stroke="#112e42"></path><path d="M838.1 282L843.1 221L780.1 234Z" fill="#246688" stroke="#246688"></path><path d="M809.1 185L840.1 159L783.1 150Z" fill="#0c2435" stroke="#0c2435"></path><path d="M900 319L854.1 260L838.1 282Z" fill="#205a7a" stroke="#205a7a"></path><path d="M838.1 282L854.1 260L843.1 221Z" fill="#246688" stroke="#246688"></path><path d="M196.8 36L153.8 60L202.8 83Z" fill="#277297" stroke="#277297"></path><path d="M140.8 0L153.8 60L196.8 36Z" fill="#19435d" stroke="#19435d"></path><path d="M116.9 166L86.9 205L159.8 184Z" fill="#112e42" stroke="#112e42"></path><path d="M90.9 251L38.9 321L120.9 306Z" fill="#00101c" stroke="#00101c"></path><path d="M51.9 143L86.9 205L116.9 166Z" fill="#277297" stroke="#277297"></path><path d="M252.7 0L203.8 0L196.8 36Z" fill="#1d4e6b" stroke="#1d4e6b"></path><path d="M752.2 37L736.2 0L697.2 37Z" fill="#277297" stroke="#277297"></path><path d="M776.1 0L736.2 0L752.2 37Z" fill="#081a28" stroke="#081a28"></path><path d="M900 190L840.1 159L843.1 221Z" fill="#297ea6" stroke="#297ea6"></path><path d="M843.1 221L840.1 159L809.1 185Z" fill="#246688" stroke="#246688"></path><path d="M833.1 106L805.1 78L783.1 150Z" fill="#297ea6" stroke="#297ea6"></path><path d="M111.9 487L164.8 494L155.8 469Z" fill="#1d4e6b" stroke="#1d4e6b"></path><path d="M164.8 494L153.8 529L221.8 512Z" fill="#246688" stroke="#246688"></path><path d="M205.8 552L213.8 600L257.7 600Z" fill="#112e42" stroke="#112e42"></path><path d="M813.1 401L849.1 403L825.1 371Z" fill="#1d4e6b" stroke="#1d4e6b"></path><path d="M825.1 371L900 319L811.1 307Z" fill="#246688" stroke="#246688"></path><path d="M841.1 448L813.1 401L790.1 432Z" fill="#277297" stroke="#277297"></path><path d="M804.1 508L754.2 467L731.2 519Z" fill="#19435d" stroke="#19435d"></path><path d="M756.2 564L731.2 519L698.2 563Z" fill="#00101c" stroke="#00101c"></path><path d="M114.9 58L126.9 84L153.8 60Z" fill="#205a7a" stroke="#205a7a"></path><path d="M153.8 60L126.9 84L169.8 89Z" fill="#277297" stroke="#277297"></path><path d="M735.2 600L756.2 564L698.2 563Z" fill="#15384f" stroke="#15384f"></path><path d="M756.2 564L776.1 544L731.2 519Z" fill="#205a7a" stroke="#205a7a"></path><path d="M776.1 544L804.1 508L731.2 519Z" fill="#205a7a" stroke="#205a7a"></path><path d="M156.8 600L213.8 600L205.8 552Z" fill="#15384f" stroke="#15384f"></path><path d="M805.1 78L789.1 42L738.2 80Z" fill="#0c2435" stroke="#0c2435"></path><path d="M804.1 508L841.1 448L790.1 432Z" fill="#277297" stroke="#277297"></path><path d="M840.1 159L833.1 106L783.1 150Z" fill="#00101c" stroke="#00101c"></path><path d="M805.1 78L851.1 37L789.1 42Z" fill="#205a7a" stroke="#205a7a"></path><path d="M900 119L833.1 106L840.1 159Z" fill="#297ea6" stroke="#297ea6"></path><path d="M30.9 196L62.9 240L86.9 205Z" fill="#112e42" stroke="#112e42"></path><path d="M86.9 205L62.9 240L90.9 251Z" fill="#15384f" stroke="#15384f"></path><path d="M89.9 461L155.8 469L108.9 397Z" fill="#205a7a" stroke="#205a7a"></path><path d="M89.9 461L111.9 487L155.8 469Z" fill="#1d4e6b" stroke="#1d4e6b"></path><path d="M153.8 529L156.8 600L205.8 552Z" fill="#246688" stroke="#246688"></path><path d="M89.9 461L108.9 397L65.9 412Z" fill="#205a7a" stroke="#205a7a"></path><path d="M670.2 600L735.2 600L698.2 563Z" fill="#00101c" stroke="#00101c"></path><path d="M802.1 600L841.1 530L776.1 544Z" fill="#277297" stroke="#277297"></path><path d="M841.1 530L834.1 516L804.1 508Z" fill="#15384f" stroke="#15384f"></path><path d="M65.9 412L108.9 397L94.9 346Z" fill="#297ea6" stroke="#297ea6"></path><path d="M829.1 0L776.1 0L789.1 42Z" fill="#112e42" stroke="#112e42"></path><path d="M789.1 42L776.1 0L752.2 37Z" fill="#0c2435" stroke="#0c2435"></path><path d="M34.9 340L65.9 412L94.9 346Z" fill="#205a7a" stroke="#205a7a"></path><path d="M140.8 0L114.9 58L153.8 60Z" fill="#0c2435" stroke="#0c2435"></path><path d="M126.9 84L51.9 143L136.8 135Z" fill="#1d4e6b" stroke="#1d4e6b"></path><path d="M841.1 530L804.1 508L776.1 544Z" fill="#00101c" stroke="#00101c"></path><path d="M804.1 508L834.1 516L841.1 448Z" fill="#277297" stroke="#277297"></path><path d="M900 363L825.1 371L849.1 403Z" fill="#277297" stroke="#277297"></path><path d="M62.9 240L38.9 321L90.9 251Z" fill="#1d4e6b" stroke="#1d4e6b"></path><path d="M0 293L38.9 321L62.9 240Z" fill="#1d4e6b" stroke="#1d4e6b"></path><path d="M900 363L849.1 403L900 408Z" fill="#297ea6" stroke="#297ea6"></path><path d="M900 363L900 319L825.1 371Z" fill="#15384f" stroke="#15384f"></path><path d="M854.1 260L900 256L843.1 221Z" fill="#277297" stroke="#277297"></path><path d="M900 319L900 256L854.1 260Z" fill="#19435d" stroke="#19435d"></path><path d="M203.8 0L140.8 0L196.8 36Z" fill="#0c2435" stroke="#0c2435"></path><path d="M38.9 321L34.9 340L94.9 346Z" fill="#112e42" stroke="#112e42"></path><path d="M900 408L849.1 403L900 439Z" fill="#081a28" stroke="#081a28"></path><path d="M56.9 78L126.9 84L114.9 58Z" fill="#246688" stroke="#246688"></path><path d="M56.9 78L51.9 143L126.9 84Z" fill="#297ea6" stroke="#297ea6"></path><path d="M38.9 321L0 354L34.9 340Z" fill="#277297" stroke="#277297"></path><path d="M104.9 569L156.8 600L153.8 529Z" fill="#205a7a" stroke="#205a7a"></path><path d="M104.9 569L153.8 529L111.9 487Z" fill="#15384f" stroke="#15384f"></path><path d="M61.9 510L111.9 487L89.9 461Z" fill="#277297" stroke="#277297"></path><path d="M900 256L900 190L843.1 221Z" fill="#00101c" stroke="#00101c"></path><path d="M833.1 106L851.1 37L805.1 78Z" fill="#1d4e6b" stroke="#1d4e6b"></path><path d="M802.1 600L776.1 544L756.2 564Z" fill="#0c2435" stroke="#0c2435"></path><path d="M900 515L900 439L841.1 448Z" fill="#081a28" stroke="#081a28"></path><path d="M0 429L52.9 450L65.9 412Z" fill="#112e42" stroke="#112e42"></path><path d="M65.9 412L52.9 450L89.9 461Z" fill="#19435d" stroke="#19435d"></path><path d="M51.9 143L30.9 196L86.9 205Z" fill="#00101c" stroke="#00101c"></path><path d="M900 439L849.1 403L841.1 448Z" fill="#00101c" stroke="#00101c"></path><path d="M900 190L900 160L840.1 159Z" fill="#19435d" stroke="#19435d"></path><path d="M140.8 0L116.9 0L114.9 58Z" fill="#205a7a" stroke="#205a7a"></path><path d="M735.2 600L802.1 600L756.2 564Z" fill="#277297" stroke="#277297"></path><path d="M900 515L834.1 516L841.1 530Z" fill="#246688" stroke="#246688"></path><path d="M900 515L841.1 448L834.1 516Z" fill="#081a28" stroke="#081a28"></path><path d="M900 55L851.1 37L833.1 106Z" fill="#112e42" stroke="#112e42"></path><path d="M61.9 510L104.9 569L111.9 487Z" fill="#297ea6" stroke="#297ea6"></path><path d="M851.1 37L829.1 0L789.1 42Z" fill="#15384f" stroke="#15384f"></path><path d="M64.9 33L56.9 78L114.9 58Z" fill="#277297" stroke="#277297"></path><path d="M51.9 143L0 178L30.9 196Z" fill="#1d4e6b" stroke="#1d4e6b"></path><path d="M900 160L900 119L840.1 159Z" fill="#081a28" stroke="#081a28"></path><path d="M851.1 37L900 0L829.1 0Z" fill="#00101c" stroke="#00101c"></path><path d="M0 507L61.9 510L52.9 450Z" fill="#00101c" stroke="#00101c"></path><path d="M52.9 450L61.9 510L89.9 461Z" fill="#081a28" stroke="#081a28"></path><path d="M0 254L0 293L62.9 240Z" fill="#297ea6" stroke="#297ea6"></path><path d="M34.9 340L0 402L65.9 412Z" fill="#15384f" stroke="#15384f"></path><path d="M0 254L62.9 240L30.9 196Z" fill="#19435d" stroke="#19435d"></path><path d="M0 178L0 254L30.9 196Z" fill="#277297" stroke="#277297"></path><path d="M0 293L0 354L38.9 321Z" fill="#00101c" stroke="#00101c"></path><path d="M116.9 0L64.9 33L114.9 58Z" fill="#15384f" stroke="#15384f"></path><path d="M0 148L0 178L51.9 143Z" fill="#246688" stroke="#246688"></path><path d="M0 148L51.9 143L0 101Z" fill="#205a7a" stroke="#205a7a"></path><path d="M0 354L0 402L34.9 340Z" fill="#277297" stroke="#277297"></path><path d="M64.9 562L104.9 569L61.9 510Z" fill="#112e42" stroke="#112e42"></path><path d="M64.9 562L98.9 600L104.9 569Z" fill="#15384f" stroke="#15384f"></path><path d="M104.9 569L98.9 600L156.8 600Z" fill="#1d4e6b" stroke="#1d4e6b"></path><path d="M900 552L900 515L841.1 530Z" fill="#0c2435" stroke="#0c2435"></path><path d="M0 507L64.9 562L61.9 510Z" fill="#112e42" stroke="#112e42"></path><path d="M0 101L51.9 143L56.9 78Z" fill="#19435d" stroke="#19435d"></path><path d="M0 402L0 429L65.9 412Z" fill="#081a28" stroke="#081a28"></path><path d="M900 119L900 55L833.1 106Z" fill="#081a28" stroke="#081a28"></path><path d="M802.1 600L855.1 600L841.1 530Z" fill="#0c2435" stroke="#0c2435"></path><path d="M116.9 0L62.9 0L64.9 33Z" fill="#15384f" stroke="#15384f"></path><path d="M0 48L0 101L56.9 78Z" fill="#246688" stroke="#246688"></path><path d="M0 48L56.9 78L64.9 33Z" fill="#205a7a" stroke="#205a7a"></path><path d="M855.1 600L900 552L841.1 530Z" fill="#0c2435" stroke="#0c2435"></path><path d="M0 571L58.9 600L64.9 562Z" fill="#0c2435" stroke="#0c2435"></path><path d="M64.9 562L58.9 600L98.9 600Z" fill="#112e42" stroke="#112e42"></path><path d="M0 429L0 507L52.9 450Z" fill="#246688" stroke="#246688"></path><path d="M900 55L900 0L851.1 37Z" fill="#15384f" stroke="#15384f"></path><path d="M0 0L0 48L64.9 33Z" fill="#19435d" stroke="#19435d"></path><path d="M855.1 600L900 600L900 552Z" fill="#112e42" stroke="#112e42"></path><path d="M0 507L0 571L64.9 562Z" fill="#297ea6" stroke="#297ea6"></path><path d="M62.9 0L0 0L64.9 33Z" fill="#297ea6" stroke="#297ea6"></path><path d="M0 571L0 600L58.9 600Z" fill="#15384f" stroke="#15384f"></path></g></svg>